# File generated by blenderseed 0.3.4.
v -2.519485950469971 -1.604816794395447 3.694571971893311
v 2.818451881408691 -1.604816794395447 3.694571971893311
v 2.818451881408691 -1.604815363883972 -0.468934059143066
v -2.519485950469971 -1.604815363883972 -0.468934059143066
vt 0.000099999997474 0.000099999997474
vt 0.999899983406067 0.000099999997474
vt 0.999899983406067 0.999899983406067
vt 0.000099999997474 0.999899983406067
vn 0.000000000000000 0.999999940395355 0.000000343583338
o part_0
f 1/1/1 2/2/1 3/3/1 4/4/1
